<mxfile host="app.diagrams.net" modified="2023-05-06T09:09:09.667Z" agent="Mozilla/5.0 (X11; Linux x86_64; rv:102.0) Gecko/20100101 Firefox/102.0" etag="dXPx3ZUjeB-HfJXT2y_3" version="21.2.9" type="device">
  <diagram name="PÃ¡gina-1" id="-pn4PrcCB0aOLdGNFKwQ">
    <mxGraphModel dx="574" dy="317" grid="1" gridSize="10" guides="1" tooltips="1" connect="1" arrows="1" fold="1" page="1" pageScale="1" pageWidth="1169" pageHeight="827" math="0" shadow="0">
      <root>
        <mxCell id="0" />
        <mxCell id="1" parent="0" />
        <mxCell id="GVC4xmCI0ztt-ApkChza-1" value="" style="endArrow=classic;html=1;rounded=0;" parent="1" edge="1">
          <mxGeometry width="50" height="50" relative="1" as="geometry">
            <mxPoint x="320" y="600" as="sourcePoint" />
            <mxPoint x="320" y="360" as="targetPoint" />
          </mxGeometry>
        </mxCell>
        <mxCell id="GVC4xmCI0ztt-ApkChza-2" value="" style="endArrow=classic;html=1;rounded=0;" parent="1" edge="1">
          <mxGeometry width="50" height="50" relative="1" as="geometry">
            <mxPoint x="200" y="480" as="sourcePoint" />
            <mxPoint x="440" y="480" as="targetPoint" />
          </mxGeometry>
        </mxCell>
        <mxCell id="DfE6INUnDFdgPhouwwiO-3" value="" style="group;rotation=15;" vertex="1" connectable="0" parent="1">
          <mxGeometry x="240" y="437" width="150" height="85" as="geometry" />
        </mxCell>
        <mxCell id="GVC4xmCI0ztt-ApkChza-3" value="" style="ellipse;whiteSpace=wrap;html=1;aspect=fixed;fillColor=#ffe6cc;strokeColor=#d79b00;rotation=15;" parent="DfE6INUnDFdgPhouwwiO-3" vertex="1">
          <mxGeometry x="-2" y="36" width="10" height="10" as="geometry" />
        </mxCell>
        <mxCell id="GVC4xmCI0ztt-ApkChza-4" value="" style="ellipse;whiteSpace=wrap;html=1;aspect=fixed;fillColor=#ffe6cc;strokeColor=#d79b00;rotation=15;" parent="DfE6INUnDFdgPhouwwiO-3" vertex="1">
          <mxGeometry x="36" y="10" width="10" height="10" as="geometry" />
        </mxCell>
        <mxCell id="GVC4xmCI0ztt-ApkChza-5" value="" style="ellipse;whiteSpace=wrap;html=1;aspect=fixed;fillColor=#ffe6cc;strokeColor=#d79b00;rotation=15;" parent="DfE6INUnDFdgPhouwwiO-3" vertex="1">
          <mxGeometry x="15" y="51" width="10" height="10" as="geometry" />
        </mxCell>
        <mxCell id="GVC4xmCI0ztt-ApkChza-6" value="" style="ellipse;whiteSpace=wrap;html=1;aspect=fixed;fillColor=#ffe6cc;strokeColor=#d79b00;rotation=15;" parent="DfE6INUnDFdgPhouwwiO-3" vertex="1">
          <mxGeometry x="39" y="37" width="10" height="10" as="geometry" />
        </mxCell>
        <mxCell id="GVC4xmCI0ztt-ApkChza-7" value="" style="ellipse;whiteSpace=wrap;html=1;aspect=fixed;fillColor=#ffe6cc;strokeColor=#d79b00;rotation=15;" parent="DfE6INUnDFdgPhouwwiO-3" vertex="1">
          <mxGeometry x="46" y="49" width="10" height="10" as="geometry" />
        </mxCell>
        <mxCell id="GVC4xmCI0ztt-ApkChza-8" value="" style="ellipse;whiteSpace=wrap;html=1;aspect=fixed;fillColor=#ffe6cc;strokeColor=#d79b00;rotation=15;" parent="DfE6INUnDFdgPhouwwiO-3" vertex="1">
          <mxGeometry x="61" y="32" width="10" height="10" as="geometry" />
        </mxCell>
        <mxCell id="GVC4xmCI0ztt-ApkChza-9" value="" style="ellipse;whiteSpace=wrap;html=1;aspect=fixed;fillColor=#ffe6cc;strokeColor=#d79b00;rotation=15;" parent="DfE6INUnDFdgPhouwwiO-3" vertex="1">
          <mxGeometry x="31" y="66" width="10" height="10" as="geometry" />
        </mxCell>
        <mxCell id="GVC4xmCI0ztt-ApkChza-10" value="" style="ellipse;whiteSpace=wrap;html=1;aspect=fixed;fillColor=#ffe6cc;strokeColor=#d79b00;rotation=15;" parent="DfE6INUnDFdgPhouwwiO-3" vertex="1">
          <mxGeometry x="63" y="64" width="10" height="10" as="geometry" />
        </mxCell>
        <mxCell id="GVC4xmCI0ztt-ApkChza-11" value="" style="ellipse;whiteSpace=wrap;html=1;aspect=fixed;fillColor=#ffe6cc;strokeColor=#d79b00;rotation=15;" parent="DfE6INUnDFdgPhouwwiO-3" vertex="1">
          <mxGeometry x="67" y="50" width="10" height="10" as="geometry" />
        </mxCell>
        <mxCell id="GVC4xmCI0ztt-ApkChza-12" value="" style="ellipse;whiteSpace=wrap;html=1;aspect=fixed;fillColor=#ffe6cc;strokeColor=#d79b00;rotation=15;" parent="DfE6INUnDFdgPhouwwiO-3" vertex="1">
          <mxGeometry x="83" y="28" width="10" height="10" as="geometry" />
        </mxCell>
        <mxCell id="GVC4xmCI0ztt-ApkChza-13" value="" style="ellipse;whiteSpace=wrap;html=1;aspect=fixed;fillColor=#ffe6cc;strokeColor=#d79b00;rotation=15;" parent="DfE6INUnDFdgPhouwwiO-3" vertex="1">
          <mxGeometry x="20" y="32" width="10" height="10" as="geometry" />
        </mxCell>
        <mxCell id="GVC4xmCI0ztt-ApkChza-15" value="" style="ellipse;whiteSpace=wrap;html=1;aspect=fixed;fillColor=#ffe6cc;strokeColor=#d79b00;rotation=15;" parent="DfE6INUnDFdgPhouwwiO-3" vertex="1">
          <mxGeometry x="89" y="45" width="10" height="10" as="geometry" />
        </mxCell>
        <mxCell id="GVC4xmCI0ztt-ApkChza-17" value="" style="ellipse;whiteSpace=wrap;html=1;aspect=fixed;fillColor=#ffe6cc;strokeColor=#d79b00;rotation=15;" parent="DfE6INUnDFdgPhouwwiO-3" vertex="1">
          <mxGeometry x="111" y="41" width="10" height="10" as="geometry" />
        </mxCell>
        <mxCell id="GVC4xmCI0ztt-ApkChza-18" value="" style="ellipse;whiteSpace=wrap;html=1;aspect=fixed;fillColor=#ffe6cc;strokeColor=#d79b00;rotation=15;" parent="DfE6INUnDFdgPhouwwiO-3" vertex="1">
          <mxGeometry x="135" y="26" width="10" height="10" as="geometry" />
        </mxCell>
        <mxCell id="GVC4xmCI0ztt-ApkChza-19" value="" style="ellipse;whiteSpace=wrap;html=1;aspect=fixed;fillColor=#ffe6cc;strokeColor=#d79b00;rotation=15;" parent="DfE6INUnDFdgPhouwwiO-3" vertex="1">
          <mxGeometry x="142" y="39" width="10" height="10" as="geometry" />
        </mxCell>
        <mxCell id="GVC4xmCI0ztt-ApkChza-20" value="" style="ellipse;whiteSpace=wrap;html=1;aspect=fixed;fillColor=#ffe6cc;strokeColor=#d79b00;rotation=15;" parent="DfE6INUnDFdgPhouwwiO-3" vertex="1">
          <mxGeometry x="99" y="6" width="10" height="10" as="geometry" />
        </mxCell>
        <mxCell id="GVC4xmCI0ztt-ApkChza-21" value="" style="ellipse;whiteSpace=wrap;html=1;aspect=fixed;fillColor=#ffe6cc;strokeColor=#d79b00;rotation=15;" parent="DfE6INUnDFdgPhouwwiO-3" vertex="1">
          <mxGeometry x="127" y="55" width="10" height="10" as="geometry" />
        </mxCell>
        <mxCell id="GVC4xmCI0ztt-ApkChza-24" value="" style="ellipse;whiteSpace=wrap;html=1;aspect=fixed;fillColor=#ffe6cc;strokeColor=#d79b00;rotation=15;" parent="DfE6INUnDFdgPhouwwiO-3" vertex="1">
          <mxGeometry x="2" y="58" width="10" height="10" as="geometry" />
        </mxCell>
        <mxCell id="GVC4xmCI0ztt-ApkChza-25" value="" style="ellipse;whiteSpace=wrap;html=1;aspect=fixed;fillColor=#ffe6cc;strokeColor=#d79b00;rotation=15;" parent="DfE6INUnDFdgPhouwwiO-3" vertex="1">
          <mxGeometry x="116" y="21" width="10" height="10" as="geometry" />
        </mxCell>
      </root>
    </mxGraphModel>
  </diagram>
</mxfile>
